<mxfile host="app.diagrams.net" agent="Mozilla/5.0 (Windows NT 10.0; Win64; x64) AppleWebKit/537.36 (KHTML, like Gecko) Chrome/126.0.0.0 Safari/537.36" version="24.7.6">
  <diagram name="Page-1" id="4swvzcDnLpqj70ZwG7LF">
    <mxGraphModel dx="2193" dy="933" grid="0" gridSize="10" guides="1" tooltips="1" connect="1" arrows="1" fold="1" page="0" pageScale="1" pageWidth="850" pageHeight="1100" background="none" math="0" shadow="0">
      <root>
        <mxCell id="0" />
        <mxCell id="1" parent="0" />
        <mxCell id="B12BbA1uiOzRC5EeDLYQ-2" value="&lt;b&gt;MenuItemAPI&lt;/b&gt;" style="swimlane;fontStyle=0;childLayout=stackLayout;horizontal=1;startSize=26;fillColor=none;horizontalStack=0;resizeParent=1;resizeParentMax=0;resizeLast=0;collapsible=1;marginBottom=0;whiteSpace=wrap;html=1;" vertex="1" parent="1">
          <mxGeometry x="200" y="314" width="140" height="190" as="geometry" />
        </mxCell>
        <mxCell id="B12BbA1uiOzRC5EeDLYQ-102" value="+ id: int" style="text;strokeColor=none;fillColor=none;align=left;verticalAlign=top;spacingLeft=4;spacingRight=4;overflow=hidden;rotatable=0;points=[[0,0.5],[1,0.5]];portConstraint=eastwest;whiteSpace=wrap;html=1;" vertex="1" parent="B12BbA1uiOzRC5EeDLYQ-2">
          <mxGeometry y="26" width="140" height="26" as="geometry" />
        </mxCell>
        <mxCell id="B12BbA1uiOzRC5EeDLYQ-52" value="+ name: String&amp;nbsp;" style="text;strokeColor=none;fillColor=none;align=left;verticalAlign=top;spacingLeft=4;spacingRight=4;overflow=hidden;rotatable=0;points=[[0,0.5],[1,0.5]];portConstraint=eastwest;whiteSpace=wrap;html=1;" vertex="1" parent="B12BbA1uiOzRC5EeDLYQ-2">
          <mxGeometry y="52" width="140" height="26" as="geometry" />
        </mxCell>
        <mxCell id="B12BbA1uiOzRC5EeDLYQ-53" value="+ price:&amp;nbsp;&lt;span class=&quot;hljs-type&quot;&gt;double&lt;/span&gt;&amp;nbsp;" style="text;strokeColor=none;fillColor=none;align=left;verticalAlign=top;spacingLeft=4;spacingRight=4;overflow=hidden;rotatable=0;points=[[0,0.5],[1,0.5]];portConstraint=eastwest;whiteSpace=wrap;html=1;" vertex="1" parent="B12BbA1uiOzRC5EeDLYQ-2">
          <mxGeometry y="78" width="140" height="26" as="geometry" />
        </mxCell>
        <mxCell id="B12BbA1uiOzRC5EeDLYQ-51" value="" style="line;strokeWidth=1;fillColor=none;align=left;verticalAlign=middle;spacingTop=-1;spacingLeft=3;spacingRight=3;rotatable=0;labelPosition=right;points=[];portConstraint=eastwest;strokeColor=inherit;" vertex="1" parent="B12BbA1uiOzRC5EeDLYQ-2">
          <mxGeometry y="104" width="140" height="8" as="geometry" />
        </mxCell>
        <mxCell id="B12BbA1uiOzRC5EeDLYQ-54" value="+ getName()" style="text;strokeColor=none;fillColor=none;align=left;verticalAlign=top;spacingLeft=4;spacingRight=4;overflow=hidden;rotatable=0;points=[[0,0.5],[1,0.5]];portConstraint=eastwest;whiteSpace=wrap;html=1;" vertex="1" parent="B12BbA1uiOzRC5EeDLYQ-2">
          <mxGeometry y="112" width="140" height="26" as="geometry" />
        </mxCell>
        <mxCell id="B12BbA1uiOzRC5EeDLYQ-49" value="+ getPrice()" style="text;strokeColor=none;fillColor=none;align=left;verticalAlign=top;spacingLeft=4;spacingRight=4;overflow=hidden;rotatable=0;points=[[0,0.5],[1,0.5]];portConstraint=eastwest;whiteSpace=wrap;html=1;" vertex="1" parent="B12BbA1uiOzRC5EeDLYQ-2">
          <mxGeometry y="138" width="140" height="26" as="geometry" />
        </mxCell>
        <mxCell id="B12BbA1uiOzRC5EeDLYQ-50" value="+ prepare()" style="text;strokeColor=none;fillColor=none;align=left;verticalAlign=top;spacingLeft=4;spacingRight=4;overflow=hidden;rotatable=0;points=[[0,0.5],[1,0.5]];portConstraint=eastwest;whiteSpace=wrap;html=1;" vertex="1" parent="B12BbA1uiOzRC5EeDLYQ-2">
          <mxGeometry y="164" width="140" height="26" as="geometry" />
        </mxCell>
        <mxCell id="B12BbA1uiOzRC5EeDLYQ-6" value="&lt;span class=&quot;hljs-title class_&quot;&gt;&lt;b&gt;Burger&lt;/b&gt;&lt;/span&gt;" style="swimlane;fontStyle=0;childLayout=stackLayout;horizontal=1;startSize=26;fillColor=none;horizontalStack=0;resizeParent=1;resizeParentMax=0;resizeLast=0;collapsible=1;marginBottom=0;whiteSpace=wrap;html=1;" vertex="1" parent="1">
          <mxGeometry x="20" y="590" width="140" height="70" as="geometry" />
        </mxCell>
        <mxCell id="B12BbA1uiOzRC5EeDLYQ-7" value="&lt;span class=&quot;hljs-title class_&quot;&gt;&lt;b&gt;Fries&lt;/b&gt;&lt;/span&gt;" style="swimlane;fontStyle=0;childLayout=stackLayout;horizontal=1;startSize=26;fillColor=none;horizontalStack=0;resizeParent=1;resizeParentMax=0;resizeLast=0;collapsible=1;marginBottom=0;whiteSpace=wrap;html=1;" vertex="1" parent="1">
          <mxGeometry x="170" y="590" width="140" height="70" as="geometry" />
        </mxCell>
        <mxCell id="B12BbA1uiOzRC5EeDLYQ-11" value="&lt;span class=&quot;hljs-title class_&quot;&gt;&lt;b&gt;Restaurant&lt;/b&gt;&lt;/span&gt;" style="swimlane;fontStyle=0;childLayout=stackLayout;horizontal=1;startSize=26;fillColor=none;horizontalStack=0;resizeParent=1;resizeParentMax=0;resizeLast=0;collapsible=1;marginBottom=0;whiteSpace=wrap;html=1;" vertex="1" parent="1">
          <mxGeometry x="509" y="251" width="210" height="216" as="geometry" />
        </mxCell>
        <mxCell id="B12BbA1uiOzRC5EeDLYQ-17" value="+ menu: List&amp;lt;MenuItemAPI&amp;gt;" style="text;strokeColor=none;fillColor=none;align=left;verticalAlign=top;spacingLeft=4;spacingRight=4;overflow=hidden;rotatable=0;points=[[0,0.5],[1,0.5]];portConstraint=eastwest;whiteSpace=wrap;html=1;" vertex="1" parent="B12BbA1uiOzRC5EeDLYQ-11">
          <mxGeometry y="26" width="210" height="26" as="geometry" />
        </mxCell>
        <mxCell id="B12BbA1uiOzRC5EeDLYQ-33" value="+ orders: List&amp;lt;&lt;span style=&quot;text-align: center;&quot;&gt;OrderAbservableAPI&lt;/span&gt;&amp;gt;" style="text;strokeColor=none;fillColor=none;align=left;verticalAlign=top;spacingLeft=4;spacingRight=4;overflow=hidden;rotatable=0;points=[[0,0.5],[1,0.5]];portConstraint=eastwest;whiteSpace=wrap;html=1;" vertex="1" parent="B12BbA1uiOzRC5EeDLYQ-11">
          <mxGeometry y="52" width="210" height="26" as="geometry" />
        </mxCell>
        <mxCell id="B12BbA1uiOzRC5EeDLYQ-16" value="" style="line;strokeWidth=1;fillColor=none;align=left;verticalAlign=middle;spacingTop=-1;spacingLeft=3;spacingRight=3;rotatable=0;labelPosition=right;points=[];portConstraint=eastwest;strokeColor=inherit;" vertex="1" parent="B12BbA1uiOzRC5EeDLYQ-11">
          <mxGeometry y="78" width="210" height="8" as="geometry" />
        </mxCell>
        <mxCell id="B12BbA1uiOzRC5EeDLYQ-12" value="+ getInstance()&lt;div&gt;&lt;br&gt;&lt;/div&gt;" style="text;strokeColor=none;fillColor=none;align=left;verticalAlign=top;spacingLeft=4;spacingRight=4;overflow=hidden;rotatable=0;points=[[0,0.5],[1,0.5]];portConstraint=eastwest;whiteSpace=wrap;html=1;" vertex="1" parent="B12BbA1uiOzRC5EeDLYQ-11">
          <mxGeometry y="86" width="210" height="26" as="geometry" />
        </mxCell>
        <mxCell id="B12BbA1uiOzRC5EeDLYQ-13" value="+ addMenuItem(item)" style="text;strokeColor=none;fillColor=none;align=left;verticalAlign=top;spacingLeft=4;spacingRight=4;overflow=hidden;rotatable=0;points=[[0,0.5],[1,0.5]];portConstraint=eastwest;whiteSpace=wrap;html=1;" vertex="1" parent="B12BbA1uiOzRC5EeDLYQ-11">
          <mxGeometry y="112" width="210" height="26" as="geometry" />
        </mxCell>
        <mxCell id="B12BbA1uiOzRC5EeDLYQ-14" value="+&amp;nbsp;showMenu()" style="text;strokeColor=none;fillColor=none;align=left;verticalAlign=top;spacingLeft=4;spacingRight=4;overflow=hidden;rotatable=0;points=[[0,0.5],[1,0.5]];portConstraint=eastwest;whiteSpace=wrap;html=1;" vertex="1" parent="B12BbA1uiOzRC5EeDLYQ-11">
          <mxGeometry y="138" width="210" height="26" as="geometry" />
        </mxCell>
        <mxCell id="B12BbA1uiOzRC5EeDLYQ-65" value="+ addOrder(order)" style="text;strokeColor=none;fillColor=none;align=left;verticalAlign=top;spacingLeft=4;spacingRight=4;overflow=hidden;rotatable=0;points=[[0,0.5],[1,0.5]];portConstraint=eastwest;whiteSpace=wrap;html=1;" vertex="1" parent="B12BbA1uiOzRC5EeDLYQ-11">
          <mxGeometry y="164" width="210" height="26" as="geometry" />
        </mxCell>
        <mxCell id="B12BbA1uiOzRC5EeDLYQ-94" value="+ removeOrder(order)" style="text;strokeColor=none;fillColor=none;align=left;verticalAlign=top;spacingLeft=4;spacingRight=4;overflow=hidden;rotatable=0;points=[[0,0.5],[1,0.5]];portConstraint=eastwest;whiteSpace=wrap;html=1;" vertex="1" parent="B12BbA1uiOzRC5EeDLYQ-11">
          <mxGeometry y="190" width="210" height="26" as="geometry" />
        </mxCell>
        <mxCell id="B12BbA1uiOzRC5EeDLYQ-18" value="&lt;b&gt;OrderItemDecoratorAPI&lt;/b&gt;" style="swimlane;fontStyle=0;childLayout=stackLayout;horizontal=1;startSize=26;fillColor=none;horizontalStack=0;resizeParent=1;resizeParentMax=0;resizeLast=0;collapsible=1;marginBottom=0;whiteSpace=wrap;html=1;" vertex="1" parent="1">
          <mxGeometry x="330" y="590" width="170" height="70" as="geometry" />
        </mxCell>
        <mxCell id="B12BbA1uiOzRC5EeDLYQ-56" value="+ menuItem: MenuItemAPI&amp;nbsp;" style="text;strokeColor=none;fillColor=none;align=left;verticalAlign=top;spacingLeft=4;spacingRight=4;overflow=hidden;rotatable=0;points=[[0,0.5],[1,0.5]];portConstraint=eastwest;whiteSpace=wrap;html=1;" vertex="1" parent="B12BbA1uiOzRC5EeDLYQ-18">
          <mxGeometry y="26" width="170" height="44" as="geometry" />
        </mxCell>
        <mxCell id="B12BbA1uiOzRC5EeDLYQ-19" value="&lt;span class=&quot;hljs-title class_&quot;&gt;&lt;b&gt;ExtraCheeseDecorator&lt;/b&gt;&lt;/span&gt;" style="swimlane;fontStyle=0;childLayout=stackLayout;horizontal=1;startSize=26;fillColor=none;horizontalStack=0;resizeParent=1;resizeParentMax=0;resizeLast=0;collapsible=1;marginBottom=0;whiteSpace=wrap;html=1;" vertex="1" parent="1">
          <mxGeometry x="220" y="730" width="170" height="70" as="geometry" />
        </mxCell>
        <mxCell id="B12BbA1uiOzRC5EeDLYQ-20" value="&lt;span class=&quot;hljs-title class_&quot;&gt;&lt;b&gt;SpecialSauceDecorator&lt;/b&gt;&lt;/span&gt;" style="swimlane;fontStyle=0;childLayout=stackLayout;horizontal=1;startSize=26;fillColor=none;horizontalStack=0;resizeParent=1;resizeParentMax=0;resizeLast=0;collapsible=1;marginBottom=0;whiteSpace=wrap;html=1;" vertex="1" parent="1">
          <mxGeometry x="400" y="730" width="170" height="70" as="geometry" />
        </mxCell>
        <mxCell id="B12BbA1uiOzRC5EeDLYQ-22" value="&lt;b&gt;Order&lt;/b&gt;" style="swimlane;fontStyle=0;childLayout=stackLayout;horizontal=1;startSize=26;fillColor=none;horizontalStack=0;resizeParent=1;resizeParentMax=0;resizeLast=0;collapsible=1;marginBottom=0;whiteSpace=wrap;html=1;" vertex="1" parent="1">
          <mxGeometry x="1000" y="515" width="140" height="55" as="geometry" />
        </mxCell>
        <mxCell id="B12BbA1uiOzRC5EeDLYQ-23" value="&lt;b&gt;OrderAbservableAPI&lt;/b&gt;" style="swimlane;fontStyle=0;childLayout=stackLayout;horizontal=1;startSize=26;fillColor=none;horizontalStack=0;resizeParent=1;resizeParentMax=0;resizeLast=0;collapsible=1;marginBottom=0;whiteSpace=wrap;html=1;" vertex="1" parent="1">
          <mxGeometry x="880" y="276" width="250" height="190" as="geometry" />
        </mxCell>
        <mxCell id="B12BbA1uiOzRC5EeDLYQ-35" value="+ items: List&amp;lt;MenuItemAPI&amp;gt;" style="text;strokeColor=none;fillColor=none;align=left;verticalAlign=top;spacingLeft=4;spacingRight=4;overflow=hidden;rotatable=0;points=[[0,0.5],[1,0.5]];portConstraint=eastwest;whiteSpace=wrap;html=1;" vertex="1" parent="B12BbA1uiOzRC5EeDLYQ-23">
          <mxGeometry y="26" width="250" height="26" as="geometry" />
        </mxCell>
        <mxCell id="B12BbA1uiOzRC5EeDLYQ-36" value="+&amp;nbsp;&lt;span class=&quot;hljs-variable&quot;&gt;paymentProcessorAPI:&amp;nbsp;&lt;/span&gt;&lt;span class=&quot;hljs-type&quot;&gt;PaymentProcessor&lt;/span&gt;" style="text;strokeColor=none;fillColor=none;align=left;verticalAlign=top;spacingLeft=4;spacingRight=4;overflow=hidden;rotatable=0;points=[[0,0.5],[1,0.5]];portConstraint=eastwest;whiteSpace=wrap;html=1;" vertex="1" parent="B12BbA1uiOzRC5EeDLYQ-23">
          <mxGeometry y="52" width="250" height="26" as="geometry" />
        </mxCell>
        <mxCell id="B12BbA1uiOzRC5EeDLYQ-34" value="" style="line;strokeWidth=1;fillColor=none;align=left;verticalAlign=middle;spacingTop=-1;spacingLeft=3;spacingRight=3;rotatable=0;labelPosition=right;points=[];portConstraint=eastwest;strokeColor=inherit;" vertex="1" parent="B12BbA1uiOzRC5EeDLYQ-23">
          <mxGeometry y="78" width="250" height="8" as="geometry" />
        </mxCell>
        <mxCell id="B12BbA1uiOzRC5EeDLYQ-27" value="+ addObserver()" style="text;strokeColor=none;fillColor=none;align=left;verticalAlign=top;spacingLeft=4;spacingRight=4;overflow=hidden;rotatable=0;points=[[0,0.5],[1,0.5]];portConstraint=eastwest;whiteSpace=wrap;html=1;" vertex="1" parent="B12BbA1uiOzRC5EeDLYQ-23">
          <mxGeometry y="86" width="250" height="26" as="geometry" />
        </mxCell>
        <mxCell id="B12BbA1uiOzRC5EeDLYQ-28" value="+ removeObserver()" style="text;strokeColor=none;fillColor=none;align=left;verticalAlign=top;spacingLeft=4;spacingRight=4;overflow=hidden;rotatable=0;points=[[0,0.5],[1,0.5]];portConstraint=eastwest;whiteSpace=wrap;html=1;" vertex="1" parent="B12BbA1uiOzRC5EeDLYQ-23">
          <mxGeometry y="112" width="250" height="26" as="geometry" />
        </mxCell>
        <mxCell id="B12BbA1uiOzRC5EeDLYQ-32" value="+ placeOrder()" style="text;strokeColor=none;fillColor=none;align=left;verticalAlign=top;spacingLeft=4;spacingRight=4;overflow=hidden;rotatable=0;points=[[0,0.5],[1,0.5]];portConstraint=eastwest;whiteSpace=wrap;html=1;" vertex="1" parent="B12BbA1uiOzRC5EeDLYQ-23">
          <mxGeometry y="138" width="250" height="26" as="geometry" />
        </mxCell>
        <mxCell id="B12BbA1uiOzRC5EeDLYQ-31" value="+ notifyObservers()" style="text;strokeColor=none;fillColor=none;align=left;verticalAlign=top;spacingLeft=4;spacingRight=4;overflow=hidden;rotatable=0;points=[[0,0.5],[1,0.5]];portConstraint=eastwest;whiteSpace=wrap;html=1;" vertex="1" parent="B12BbA1uiOzRC5EeDLYQ-23">
          <mxGeometry y="164" width="250" height="26" as="geometry" />
        </mxCell>
        <mxCell id="B12BbA1uiOzRC5EeDLYQ-24" value="&lt;b&gt;OrderAbserverAPI&lt;/b&gt;" style="swimlane;fontStyle=0;childLayout=stackLayout;horizontal=1;startSize=26;fillColor=none;horizontalStack=0;resizeParent=1;resizeParentMax=0;resizeLast=0;collapsible=1;marginBottom=0;whiteSpace=wrap;html=1;" vertex="1" parent="1">
          <mxGeometry x="1191" y="314" width="180" height="90" as="geometry" />
        </mxCell>
        <mxCell id="B12BbA1uiOzRC5EeDLYQ-90" value="+&amp;nbsp;&lt;span class=&quot;hljs-title function_&quot;&gt;update&lt;/span&gt;&lt;span class=&quot;hljs-params&quot;&gt;(String orderDetails)&lt;/span&gt;" style="text;strokeColor=none;fillColor=none;align=left;verticalAlign=top;spacingLeft=4;spacingRight=4;overflow=hidden;rotatable=0;points=[[0,0.5],[1,0.5]];portConstraint=eastwest;whiteSpace=wrap;html=1;" vertex="1" parent="B12BbA1uiOzRC5EeDLYQ-24">
          <mxGeometry y="26" width="180" height="64" as="geometry" />
        </mxCell>
        <mxCell id="B12BbA1uiOzRC5EeDLYQ-25" value="&lt;span class=&quot;hljs-title class_&quot;&gt;&lt;b&gt;KitchenStaff&lt;/b&gt;&lt;/span&gt;" style="swimlane;fontStyle=0;childLayout=stackLayout;horizontal=1;startSize=26;fillColor=none;horizontalStack=0;resizeParent=1;resizeParentMax=0;resizeLast=0;collapsible=1;marginBottom=0;whiteSpace=wrap;html=1;" vertex="1" parent="1">
          <mxGeometry x="1160" y="470" width="140" height="60" as="geometry" />
        </mxCell>
        <mxCell id="B12BbA1uiOzRC5EeDLYQ-26" value="&lt;span class=&quot;hljs-title class_&quot;&gt;&lt;b&gt;WaitStaff&lt;/b&gt;&lt;/span&gt;" style="swimlane;fontStyle=0;childLayout=stackLayout;horizontal=1;startSize=26;fillColor=none;horizontalStack=0;resizeParent=1;resizeParentMax=0;resizeLast=0;collapsible=1;marginBottom=0;whiteSpace=wrap;html=1;" vertex="1" parent="1">
          <mxGeometry x="1310" y="470" width="140" height="60" as="geometry" />
        </mxCell>
        <mxCell id="B12BbA1uiOzRC5EeDLYQ-37" value="&lt;span class=&quot;hljs-type&quot;&gt;&lt;b&gt;PaymentProcessorAPI&lt;/b&gt;&lt;/span&gt;" style="swimlane;fontStyle=0;childLayout=stackLayout;horizontal=1;startSize=26;fillColor=none;horizontalStack=0;resizeParent=1;resizeParentMax=0;resizeLast=0;collapsible=1;marginBottom=0;whiteSpace=wrap;html=1;" vertex="1" parent="1">
          <mxGeometry x="780" y="530" width="180" height="124" as="geometry" />
        </mxCell>
        <mxCell id="B12BbA1uiOzRC5EeDLYQ-76" value="+ strategy: PaymentStrategy&amp;nbsp;" style="text;strokeColor=none;fillColor=none;align=left;verticalAlign=top;spacingLeft=4;spacingRight=4;overflow=hidden;rotatable=0;points=[[0,0.5],[1,0.5]];portConstraint=eastwest;whiteSpace=wrap;html=1;" vertex="1" parent="B12BbA1uiOzRC5EeDLYQ-37">
          <mxGeometry y="26" width="180" height="26" as="geometry" />
        </mxCell>
        <mxCell id="B12BbA1uiOzRC5EeDLYQ-77" value="" style="line;strokeWidth=1;fillColor=none;align=left;verticalAlign=middle;spacingTop=-1;spacingLeft=3;spacingRight=3;rotatable=0;labelPosition=right;points=[];portConstraint=eastwest;strokeColor=inherit;" vertex="1" parent="B12BbA1uiOzRC5EeDLYQ-37">
          <mxGeometry y="52" width="180" height="8" as="geometry" />
        </mxCell>
        <mxCell id="B12BbA1uiOzRC5EeDLYQ-75" value="+&amp;nbsp;&lt;span class=&quot;hljs-title function_&quot;&gt;pay&lt;/span&gt;&lt;span class=&quot;hljs-params&quot;&gt;(&lt;span class=&quot;hljs-type&quot;&gt;double&lt;/span&gt; amount)&lt;/span&gt;" style="text;strokeColor=none;fillColor=none;align=left;verticalAlign=top;spacingLeft=4;spacingRight=4;overflow=hidden;rotatable=0;points=[[0,0.5],[1,0.5]];portConstraint=eastwest;whiteSpace=wrap;html=1;" vertex="1" parent="B12BbA1uiOzRC5EeDLYQ-37">
          <mxGeometry y="60" width="180" height="64" as="geometry" />
        </mxCell>
        <mxCell id="B12BbA1uiOzRC5EeDLYQ-38" value="&lt;span class=&quot;hljs-type&quot;&gt;&lt;b&gt;PaymentStrategyAPI&lt;/b&gt;&lt;/span&gt;" style="swimlane;fontStyle=0;childLayout=stackLayout;horizontal=1;startSize=26;fillColor=none;horizontalStack=0;resizeParent=1;resizeParentMax=0;resizeLast=0;collapsible=1;marginBottom=0;whiteSpace=wrap;html=1;" vertex="1" parent="1">
          <mxGeometry x="1021" y="640" width="170" height="80" as="geometry" />
        </mxCell>
        <mxCell id="B12BbA1uiOzRC5EeDLYQ-78" value="+&amp;nbsp;&lt;span class=&quot;hljs-title function_&quot;&gt;pay&lt;/span&gt;&lt;span class=&quot;hljs-params&quot;&gt;(&lt;span class=&quot;hljs-type&quot;&gt;double&lt;/span&gt; amount)&lt;/span&gt;" style="text;strokeColor=none;fillColor=none;align=left;verticalAlign=top;spacingLeft=4;spacingRight=4;overflow=hidden;rotatable=0;points=[[0,0.5],[1,0.5]];portConstraint=eastwest;whiteSpace=wrap;html=1;" vertex="1" parent="B12BbA1uiOzRC5EeDLYQ-38">
          <mxGeometry y="26" width="170" height="54" as="geometry" />
        </mxCell>
        <mxCell id="B12BbA1uiOzRC5EeDLYQ-39" value="&lt;span class=&quot;hljs-type&quot;&gt;&lt;b&gt;PaymentProcessor&lt;/b&gt;&lt;/span&gt;" style="swimlane;fontStyle=0;childLayout=stackLayout;horizontal=1;startSize=26;fillColor=none;horizontalStack=0;resizeParent=1;resizeParentMax=0;resizeLast=0;collapsible=1;marginBottom=0;whiteSpace=wrap;html=1;" vertex="1" parent="1">
          <mxGeometry x="730" y="720" width="170" height="60" as="geometry" />
        </mxCell>
        <mxCell id="B12BbA1uiOzRC5EeDLYQ-40" value="&lt;span class=&quot;hljs-title class_&quot;&gt;&lt;b&gt;CreditCardPayment&lt;/b&gt;&lt;/span&gt;" style="swimlane;fontStyle=0;childLayout=stackLayout;horizontal=1;startSize=26;fillColor=none;horizontalStack=0;resizeParent=1;resizeParentMax=0;resizeLast=0;collapsible=1;marginBottom=0;whiteSpace=wrap;html=1;" vertex="1" parent="1">
          <mxGeometry x="930" y="780" width="170" height="60" as="geometry" />
        </mxCell>
        <mxCell id="B12BbA1uiOzRC5EeDLYQ-41" value="&lt;span class=&quot;hljs-title class_&quot;&gt;&lt;b&gt;CashPayment&lt;/b&gt;&lt;/span&gt;" style="swimlane;fontStyle=0;childLayout=stackLayout;horizontal=1;startSize=26;fillColor=none;horizontalStack=0;resizeParent=1;resizeParentMax=0;resizeLast=0;collapsible=1;marginBottom=0;whiteSpace=wrap;html=1;" vertex="1" parent="1">
          <mxGeometry x="1110" y="780" width="170" height="60" as="geometry" />
        </mxCell>
        <mxCell id="B12BbA1uiOzRC5EeDLYQ-42" value="&lt;span class=&quot;hljs-title class_&quot;&gt;&lt;b&gt;MenuComponentAPI&lt;/b&gt;&lt;/span&gt;" style="swimlane;fontStyle=0;childLayout=stackLayout;horizontal=1;startSize=26;fillColor=none;horizontalStack=0;resizeParent=1;resizeParentMax=0;resizeLast=0;collapsible=1;marginBottom=0;whiteSpace=wrap;html=1;" vertex="1" parent="1">
          <mxGeometry x="-80" y="320" width="180" height="138" as="geometry" />
        </mxCell>
        <mxCell id="B12BbA1uiOzRC5EeDLYQ-47" value="+ items: List&amp;lt;MenuItemAPI&amp;gt;" style="text;strokeColor=none;fillColor=none;align=left;verticalAlign=top;spacingLeft=4;spacingRight=4;overflow=hidden;rotatable=0;points=[[0,0.5],[1,0.5]];portConstraint=eastwest;whiteSpace=wrap;html=1;" vertex="1" parent="B12BbA1uiOzRC5EeDLYQ-42">
          <mxGeometry y="26" width="180" height="26" as="geometry" />
        </mxCell>
        <mxCell id="B12BbA1uiOzRC5EeDLYQ-48" value="" style="line;strokeWidth=1;fillColor=none;align=left;verticalAlign=middle;spacingTop=-1;spacingLeft=3;spacingRight=3;rotatable=0;labelPosition=right;points=[];portConstraint=eastwest;strokeColor=inherit;" vertex="1" parent="B12BbA1uiOzRC5EeDLYQ-42">
          <mxGeometry y="52" width="180" height="8" as="geometry" />
        </mxCell>
        <mxCell id="B12BbA1uiOzRC5EeDLYQ-46" value="+ addItem(item)" style="text;strokeColor=none;fillColor=none;align=left;verticalAlign=top;spacingLeft=4;spacingRight=4;overflow=hidden;rotatable=0;points=[[0,0.5],[1,0.5]];portConstraint=eastwest;whiteSpace=wrap;html=1;" vertex="1" parent="B12BbA1uiOzRC5EeDLYQ-42">
          <mxGeometry y="60" width="180" height="26" as="geometry" />
        </mxCell>
        <mxCell id="B12BbA1uiOzRC5EeDLYQ-95" value="+ removeItem(item)" style="text;strokeColor=none;fillColor=none;align=left;verticalAlign=top;spacingLeft=4;spacingRight=4;overflow=hidden;rotatable=0;points=[[0,0.5],[1,0.5]];portConstraint=eastwest;whiteSpace=wrap;html=1;" vertex="1" parent="B12BbA1uiOzRC5EeDLYQ-42">
          <mxGeometry y="86" width="180" height="26" as="geometry" />
        </mxCell>
        <mxCell id="B12BbA1uiOzRC5EeDLYQ-96" value="+ getComponents()" style="text;strokeColor=none;fillColor=none;align=left;verticalAlign=top;spacingLeft=4;spacingRight=4;overflow=hidden;rotatable=0;points=[[0,0.5],[1,0.5]];portConstraint=eastwest;whiteSpace=wrap;html=1;" vertex="1" parent="B12BbA1uiOzRC5EeDLYQ-42">
          <mxGeometry y="112" width="180" height="26" as="geometry" />
        </mxCell>
        <mxCell id="B12BbA1uiOzRC5EeDLYQ-43" value="&lt;span class=&quot;hljs-title class_&quot;&gt;&lt;b&gt;ComboMeal&lt;/b&gt;&lt;/span&gt;" style="swimlane;fontStyle=0;childLayout=stackLayout;horizontal=1;startSize=26;fillColor=none;horizontalStack=0;resizeParent=1;resizeParentMax=0;resizeLast=0;collapsible=1;marginBottom=0;whiteSpace=wrap;html=1;" vertex="1" parent="1">
          <mxGeometry x="-60" y="500" width="140" height="60" as="geometry" />
        </mxCell>
        <mxCell id="B12BbA1uiOzRC5EeDLYQ-44" value="&lt;span class=&quot;hljs-title class_&quot;&gt;&lt;b&gt;Drink&lt;/b&gt;&lt;/span&gt;" style="swimlane;fontStyle=0;childLayout=stackLayout;horizontal=1;startSize=26;fillColor=none;horizontalStack=0;resizeParent=1;resizeParentMax=0;resizeLast=0;collapsible=1;marginBottom=0;whiteSpace=wrap;html=1;" vertex="1" parent="1">
          <mxGeometry x="-130" y="590" width="140" height="70" as="geometry" />
        </mxCell>
        <mxCell id="B12BbA1uiOzRC5EeDLYQ-66" value="" style="endArrow=block;endSize=16;endFill=0;html=1;rounded=0;entryX=0.525;entryY=1.025;entryDx=0;entryDy=0;entryPerimeter=0;exitX=0.5;exitY=0;exitDx=0;exitDy=0;" edge="1" parent="1" source="B12BbA1uiOzRC5EeDLYQ-20" target="B12BbA1uiOzRC5EeDLYQ-56">
          <mxGeometry x="-0.5043" y="-18" width="160" relative="1" as="geometry">
            <mxPoint x="220" y="710" as="sourcePoint" />
            <mxPoint x="380" y="710" as="targetPoint" />
            <Array as="points">
              <mxPoint x="420" y="710" />
            </Array>
            <mxPoint as="offset" />
          </mxGeometry>
        </mxCell>
        <mxCell id="B12BbA1uiOzRC5EeDLYQ-67" value="" style="endArrow=block;endSize=16;endFill=0;html=1;rounded=0;exitX=0.5;exitY=0;exitDx=0;exitDy=0;entryX=0.529;entryY=1.009;entryDx=0;entryDy=0;entryPerimeter=0;" edge="1" parent="1" source="B12BbA1uiOzRC5EeDLYQ-19" target="B12BbA1uiOzRC5EeDLYQ-56">
          <mxGeometry width="160" relative="1" as="geometry">
            <mxPoint x="240" y="710" as="sourcePoint" />
            <mxPoint x="420" y="670" as="targetPoint" />
            <Array as="points">
              <mxPoint x="420" y="710" />
            </Array>
          </mxGeometry>
        </mxCell>
        <mxCell id="B12BbA1uiOzRC5EeDLYQ-68" value="" style="endArrow=block;endSize=16;endFill=0;html=1;rounded=0;entryX=0.512;entryY=0.962;entryDx=0;entryDy=0;entryPerimeter=0;exitX=0.5;exitY=0;exitDx=0;exitDy=0;" edge="1" parent="1" source="B12BbA1uiOzRC5EeDLYQ-44" target="B12BbA1uiOzRC5EeDLYQ-50">
          <mxGeometry width="160" relative="1" as="geometry">
            <mxPoint x="80" y="560" as="sourcePoint" />
            <mxPoint x="270" y="540" as="targetPoint" />
            <Array as="points">
              <mxPoint x="272" y="550" />
            </Array>
          </mxGeometry>
        </mxCell>
        <mxCell id="B12BbA1uiOzRC5EeDLYQ-69" value="" style="endArrow=block;endSize=16;endFill=0;html=1;rounded=0;exitX=0.5;exitY=0;exitDx=0;exitDy=0;entryX=0.518;entryY=1.026;entryDx=0;entryDy=0;entryPerimeter=0;" edge="1" parent="1" source="B12BbA1uiOzRC5EeDLYQ-6" target="B12BbA1uiOzRC5EeDLYQ-50">
          <mxGeometry width="160" relative="1" as="geometry">
            <mxPoint x="370" y="550" as="sourcePoint" />
            <mxPoint x="340" y="540" as="targetPoint" />
            <Array as="points">
              <mxPoint x="273" y="550" />
            </Array>
          </mxGeometry>
        </mxCell>
        <mxCell id="B12BbA1uiOzRC5EeDLYQ-70" value="" style="endArrow=block;endSize=16;endFill=0;html=1;rounded=0;entryX=0.506;entryY=1.026;entryDx=0;entryDy=0;entryPerimeter=0;exitX=0.5;exitY=0;exitDx=0;exitDy=0;" edge="1" parent="1" source="B12BbA1uiOzRC5EeDLYQ-7" target="B12BbA1uiOzRC5EeDLYQ-50">
          <mxGeometry width="160" relative="1" as="geometry">
            <mxPoint x="380" y="540" as="sourcePoint" />
            <mxPoint x="540" y="540" as="targetPoint" />
            <Array as="points">
              <mxPoint x="271" y="550" />
            </Array>
          </mxGeometry>
        </mxCell>
        <mxCell id="B12BbA1uiOzRC5EeDLYQ-71" value="" style="endArrow=block;endSize=16;endFill=0;html=1;rounded=0;entryX=0.512;entryY=1.071;entryDx=0;entryDy=0;entryPerimeter=0;exitX=0.5;exitY=0;exitDx=0;exitDy=0;" edge="1" parent="1" source="B12BbA1uiOzRC5EeDLYQ-18" target="B12BbA1uiOzRC5EeDLYQ-50">
          <mxGeometry width="160" relative="1" as="geometry">
            <mxPoint x="460" y="550" as="sourcePoint" />
            <mxPoint x="620" y="550" as="targetPoint" />
            <Array as="points">
              <mxPoint x="272" y="550" />
            </Array>
          </mxGeometry>
        </mxCell>
        <mxCell id="B12BbA1uiOzRC5EeDLYQ-72" value="" style="endArrow=block;endSize=16;endFill=0;html=1;rounded=0;exitX=0.5;exitY=0;exitDx=0;exitDy=0;entryX=0.5;entryY=1.128;entryDx=0;entryDy=0;entryPerimeter=0;" edge="1" parent="1" source="B12BbA1uiOzRC5EeDLYQ-43" target="B12BbA1uiOzRC5EeDLYQ-96">
          <mxGeometry width="160" relative="1" as="geometry">
            <mxPoint x="-160" y="450" as="sourcePoint" />
            <mxPoint x="9" y="480" as="targetPoint" />
          </mxGeometry>
        </mxCell>
        <mxCell id="B12BbA1uiOzRC5EeDLYQ-74" value="" style="html=1;verticalAlign=bottom;endArrow=block;curved=0;rounded=0;entryX=-0.012;entryY=0.032;entryDx=0;entryDy=0;entryPerimeter=0;" edge="1" parent="1" target="B12BbA1uiOzRC5EeDLYQ-14">
          <mxGeometry width="80" relative="1" as="geometry">
            <mxPoint x="340" y="390" as="sourcePoint" />
            <mxPoint x="420" y="390" as="targetPoint" />
          </mxGeometry>
        </mxCell>
        <mxCell id="B12BbA1uiOzRC5EeDLYQ-80" value="" style="endArrow=block;endSize=16;endFill=0;html=1;rounded=0;entryX=0.49;entryY=0.995;entryDx=0;entryDy=0;entryPerimeter=0;exitX=0.5;exitY=0;exitDx=0;exitDy=0;" edge="1" parent="1" source="B12BbA1uiOzRC5EeDLYQ-40" target="B12BbA1uiOzRC5EeDLYQ-78">
          <mxGeometry width="160" relative="1" as="geometry">
            <mxPoint x="1170" y="830" as="sourcePoint" />
            <mxPoint x="1330" y="830" as="targetPoint" />
            <Array as="points">
              <mxPoint x="1106" y="760" />
            </Array>
          </mxGeometry>
        </mxCell>
        <mxCell id="B12BbA1uiOzRC5EeDLYQ-81" value="" style="endArrow=block;endSize=16;endFill=0;html=1;rounded=0;entryX=0.49;entryY=1.021;entryDx=0;entryDy=0;entryPerimeter=0;exitX=0.5;exitY=0;exitDx=0;exitDy=0;" edge="1" parent="1" source="B12BbA1uiOzRC5EeDLYQ-41" target="B12BbA1uiOzRC5EeDLYQ-78">
          <mxGeometry width="160" relative="1" as="geometry">
            <mxPoint x="1190" y="820" as="sourcePoint" />
            <mxPoint x="1350" y="820" as="targetPoint" />
            <Array as="points">
              <mxPoint x="1106" y="760" />
            </Array>
          </mxGeometry>
        </mxCell>
        <mxCell id="B12BbA1uiOzRC5EeDLYQ-82" value="" style="html=1;verticalAlign=bottom;endArrow=block;curved=0;rounded=0;exitX=0;exitY=0.25;exitDx=0;exitDy=0;entryX=1.014;entryY=0.878;entryDx=0;entryDy=0;entryPerimeter=0;" edge="1" parent="1" source="B12BbA1uiOzRC5EeDLYQ-38" target="B12BbA1uiOzRC5EeDLYQ-75">
          <mxGeometry width="80" relative="1" as="geometry">
            <mxPoint x="890" y="680" as="sourcePoint" />
            <mxPoint x="970" y="680" as="targetPoint" />
          </mxGeometry>
        </mxCell>
        <mxCell id="B12BbA1uiOzRC5EeDLYQ-83" value="" style="html=1;verticalAlign=bottom;endArrow=block;curved=0;rounded=0;entryX=0.073;entryY=1.051;entryDx=0;entryDy=0;entryPerimeter=0;exitX=0.5;exitY=0;exitDx=0;exitDy=0;" edge="1" parent="1" source="B12BbA1uiOzRC5EeDLYQ-37" target="B12BbA1uiOzRC5EeDLYQ-31">
          <mxGeometry width="80" relative="1" as="geometry">
            <mxPoint x="760" y="625" as="sourcePoint" />
            <mxPoint x="710" y="560" as="targetPoint" />
            <Array as="points" />
          </mxGeometry>
        </mxCell>
        <mxCell id="B12BbA1uiOzRC5EeDLYQ-84" value="" style="endArrow=block;endSize=16;endFill=0;html=1;rounded=0;entryX=0.204;entryY=1.01;entryDx=0;entryDy=0;entryPerimeter=0;exitX=0.5;exitY=0;exitDx=0;exitDy=0;" edge="1" parent="1" source="B12BbA1uiOzRC5EeDLYQ-39" target="B12BbA1uiOzRC5EeDLYQ-75">
          <mxGeometry width="160" relative="1" as="geometry">
            <mxPoint x="580" y="920" as="sourcePoint" />
            <mxPoint x="740" y="920" as="targetPoint" />
          </mxGeometry>
        </mxCell>
        <mxCell id="B12BbA1uiOzRC5EeDLYQ-85" value="" style="endArrow=block;endSize=16;endFill=0;html=1;rounded=0;entryX=0.763;entryY=1.051;entryDx=0;entryDy=0;entryPerimeter=0;exitX=0.5;exitY=0;exitDx=0;exitDy=0;" edge="1" parent="1" source="B12BbA1uiOzRC5EeDLYQ-22" target="B12BbA1uiOzRC5EeDLYQ-31">
          <mxGeometry width="160" relative="1" as="geometry">
            <mxPoint x="910" y="580" as="sourcePoint" />
            <mxPoint x="1070" y="580" as="targetPoint" />
          </mxGeometry>
        </mxCell>
        <mxCell id="B12BbA1uiOzRC5EeDLYQ-86" value="" style="html=1;verticalAlign=bottom;endArrow=block;curved=0;rounded=0;entryX=1;entryY=0.5;entryDx=0;entryDy=0;exitX=-0.003;exitY=0.082;exitDx=0;exitDy=0;exitPerimeter=0;" edge="1" parent="1" source="B12BbA1uiOzRC5EeDLYQ-23" target="B12BbA1uiOzRC5EeDLYQ-17">
          <mxGeometry width="80" relative="1" as="geometry">
            <mxPoint x="660" y="500" as="sourcePoint" />
            <mxPoint x="740" y="500" as="targetPoint" />
          </mxGeometry>
        </mxCell>
        <mxCell id="B12BbA1uiOzRC5EeDLYQ-87" value="" style="html=1;verticalAlign=bottom;endArrow=block;curved=0;rounded=0;entryX=0.997;entryY=0.099;entryDx=0;entryDy=0;entryPerimeter=0;exitX=-0.018;exitY=0.151;exitDx=0;exitDy=0;exitPerimeter=0;" edge="1" parent="1" source="B12BbA1uiOzRC5EeDLYQ-24" target="B12BbA1uiOzRC5EeDLYQ-23">
          <mxGeometry width="80" relative="1" as="geometry">
            <mxPoint x="1100" y="450" as="sourcePoint" />
            <mxPoint x="1180" y="450" as="targetPoint" />
          </mxGeometry>
        </mxCell>
        <mxCell id="B12BbA1uiOzRC5EeDLYQ-88" value="" style="endArrow=block;endSize=16;endFill=0;html=1;rounded=0;entryX=0.5;entryY=1;entryDx=0;entryDy=0;exitX=0.5;exitY=0;exitDx=0;exitDy=0;" edge="1" parent="1" source="B12BbA1uiOzRC5EeDLYQ-25" target="B12BbA1uiOzRC5EeDLYQ-24">
          <mxGeometry width="160" relative="1" as="geometry">
            <mxPoint x="1210" y="530" as="sourcePoint" />
            <mxPoint x="1370" y="530" as="targetPoint" />
            <Array as="points">
              <mxPoint x="1280" y="440" />
            </Array>
          </mxGeometry>
        </mxCell>
        <mxCell id="B12BbA1uiOzRC5EeDLYQ-89" value="" style="endArrow=block;endSize=16;endFill=0;html=1;rounded=0;exitX=0.5;exitY=0;exitDx=0;exitDy=0;entryX=0.499;entryY=0.997;entryDx=0;entryDy=0;entryPerimeter=0;" edge="1" parent="1" source="B12BbA1uiOzRC5EeDLYQ-26" target="B12BbA1uiOzRC5EeDLYQ-90">
          <mxGeometry width="160" relative="1" as="geometry">
            <mxPoint x="1450" y="500" as="sourcePoint" />
            <mxPoint x="1290" y="410" as="targetPoint" />
            <Array as="points">
              <mxPoint x="1279" y="441" />
            </Array>
          </mxGeometry>
        </mxCell>
        <mxCell id="B12BbA1uiOzRC5EeDLYQ-93" value="" style="endArrow=block;endSize=16;endFill=0;html=1;rounded=0;entryX=0.003;entryY=0.105;entryDx=0;entryDy=0;exitX=1.008;exitY=0.116;exitDx=0;exitDy=0;entryPerimeter=0;exitPerimeter=0;" edge="1" parent="1" source="B12BbA1uiOzRC5EeDLYQ-42" target="B12BbA1uiOzRC5EeDLYQ-2">
          <mxGeometry width="160" relative="1" as="geometry">
            <mxPoint x="80" y="290" as="sourcePoint" />
            <mxPoint x="240" y="290" as="targetPoint" />
          </mxGeometry>
        </mxCell>
        <mxCell id="B12BbA1uiOzRC5EeDLYQ-98" value="" style="endArrow=classic;html=1;rounded=0;" edge="1" parent="1">
          <mxGeometry width="50" height="50" relative="1" as="geometry">
            <mxPoint x="-50" y="680" as="sourcePoint" />
            <mxPoint x="-20" y="840" as="targetPoint" />
          </mxGeometry>
        </mxCell>
        <mxCell id="B12BbA1uiOzRC5EeDLYQ-99" value="" style="rounded=1;whiteSpace=wrap;html=1;" vertex="1" parent="1">
          <mxGeometry x="-100" y="850" width="620" height="430" as="geometry" />
        </mxCell>
        <mxCell id="B12BbA1uiOzRC5EeDLYQ-100" value="&lt;b&gt;Drink Item Creation&lt;/b&gt;" style="text;html=1;align=center;verticalAlign=middle;whiteSpace=wrap;rounded=0;" vertex="1" parent="1">
          <mxGeometry x="142.5" y="850" width="135" height="30" as="geometry" />
        </mxCell>
        <mxCell id="B12BbA1uiOzRC5EeDLYQ-103" value="&lt;b&gt;DrinkBuilderAPI&lt;/b&gt;" style="swimlane;fontStyle=0;childLayout=stackLayout;horizontal=1;startSize=26;fillColor=none;horizontalStack=0;resizeParent=1;resizeParentMax=0;resizeLast=0;collapsible=1;marginBottom=0;whiteSpace=wrap;html=1;" vertex="1" parent="1">
          <mxGeometry x="-20" y="900" width="170" height="130" as="geometry" />
        </mxCell>
        <mxCell id="B12BbA1uiOzRC5EeDLYQ-104" value="+ setId(int id)" style="text;strokeColor=none;fillColor=none;align=left;verticalAlign=top;spacingLeft=4;spacingRight=4;overflow=hidden;rotatable=0;points=[[0,0.5],[1,0.5]];portConstraint=eastwest;whiteSpace=wrap;html=1;" vertex="1" parent="B12BbA1uiOzRC5EeDLYQ-103">
          <mxGeometry y="26" width="170" height="26" as="geometry" />
        </mxCell>
        <mxCell id="B12BbA1uiOzRC5EeDLYQ-105" value="+ setCost(double cost)" style="text;strokeColor=none;fillColor=none;align=left;verticalAlign=top;spacingLeft=4;spacingRight=4;overflow=hidden;rotatable=0;points=[[0,0.5],[1,0.5]];portConstraint=eastwest;whiteSpace=wrap;html=1;" vertex="1" parent="B12BbA1uiOzRC5EeDLYQ-103">
          <mxGeometry y="52" width="170" height="26" as="geometry" />
        </mxCell>
        <mxCell id="B12BbA1uiOzRC5EeDLYQ-107" value="+ setName(String name)" style="text;strokeColor=none;fillColor=none;align=left;verticalAlign=top;spacingLeft=4;spacingRight=4;overflow=hidden;rotatable=0;points=[[0,0.5],[1,0.5]];portConstraint=eastwest;whiteSpace=wrap;html=1;" vertex="1" parent="B12BbA1uiOzRC5EeDLYQ-103">
          <mxGeometry y="78" width="170" height="26" as="geometry" />
        </mxCell>
        <mxCell id="B12BbA1uiOzRC5EeDLYQ-108" value="+ build()" style="text;strokeColor=none;fillColor=none;align=left;verticalAlign=top;spacingLeft=4;spacingRight=4;overflow=hidden;rotatable=0;points=[[0,0.5],[1,0.5]];portConstraint=eastwest;whiteSpace=wrap;html=1;" vertex="1" parent="B12BbA1uiOzRC5EeDLYQ-103">
          <mxGeometry y="104" width="170" height="26" as="geometry" />
        </mxCell>
        <mxCell id="B12BbA1uiOzRC5EeDLYQ-109" value="&lt;b&gt;DrinkBuilder&lt;/b&gt;" style="swimlane;fontStyle=0;childLayout=stackLayout;horizontal=1;startSize=26;fillColor=none;horizontalStack=0;resizeParent=1;resizeParentMax=0;resizeLast=0;collapsible=1;marginBottom=0;whiteSpace=wrap;html=1;" vertex="1" parent="1">
          <mxGeometry x="-20" y="1090" width="170" height="70" as="geometry" />
        </mxCell>
        <mxCell id="B12BbA1uiOzRC5EeDLYQ-110" value="&lt;b&gt;DrinkBuilderFactoryAPI&lt;/b&gt;" style="swimlane;fontStyle=0;childLayout=stackLayout;horizontal=1;startSize=26;fillColor=none;horizontalStack=0;resizeParent=1;resizeParentMax=0;resizeLast=0;collapsible=1;marginBottom=0;whiteSpace=wrap;html=1;" vertex="1" parent="1">
          <mxGeometry x="270" y="900" width="170" height="130" as="geometry" />
        </mxCell>
        <mxCell id="B12BbA1uiOzRC5EeDLYQ-111" value="+ getDrinkBuilder()" style="text;strokeColor=none;fillColor=none;align=left;verticalAlign=top;spacingLeft=4;spacingRight=4;overflow=hidden;rotatable=0;points=[[0,0.5],[1,0.5]];portConstraint=eastwest;whiteSpace=wrap;html=1;" vertex="1" parent="B12BbA1uiOzRC5EeDLYQ-110">
          <mxGeometry y="26" width="170" height="104" as="geometry" />
        </mxCell>
        <mxCell id="B12BbA1uiOzRC5EeDLYQ-112" value="" style="endArrow=block;endSize=16;endFill=0;html=1;rounded=0;entryX=0.504;entryY=1.152;entryDx=0;entryDy=0;entryPerimeter=0;exitX=0.5;exitY=0;exitDx=0;exitDy=0;" edge="1" parent="1" source="B12BbA1uiOzRC5EeDLYQ-109" target="B12BbA1uiOzRC5EeDLYQ-108">
          <mxGeometry width="160" relative="1" as="geometry">
            <mxPoint x="170" y="1180" as="sourcePoint" />
            <mxPoint x="330" y="1180" as="targetPoint" />
          </mxGeometry>
        </mxCell>
        <mxCell id="B12BbA1uiOzRC5EeDLYQ-113" value="&lt;b&gt;DrinkBuilderFactory&lt;/b&gt;" style="swimlane;fontStyle=0;childLayout=stackLayout;horizontal=1;startSize=26;fillColor=none;horizontalStack=0;resizeParent=1;resizeParentMax=0;resizeLast=0;collapsible=1;marginBottom=0;whiteSpace=wrap;html=1;" vertex="1" parent="1">
          <mxGeometry x="270" y="1090" width="170" height="70" as="geometry" />
        </mxCell>
        <mxCell id="B12BbA1uiOzRC5EeDLYQ-114" value="&lt;b&gt;SingletonDrinkBuilderFactoryEnum&amp;nbsp;&lt;/b&gt;" style="swimlane;fontStyle=0;childLayout=stackLayout;horizontal=1;startSize=26;fillColor=none;horizontalStack=0;resizeParent=1;resizeParentMax=0;resizeLast=0;collapsible=1;marginBottom=0;whiteSpace=wrap;html=1;" vertex="1" parent="1">
          <mxGeometry x="90" y="1200" width="240" height="52" as="geometry" />
        </mxCell>
        <mxCell id="B12BbA1uiOzRC5EeDLYQ-116" value="+ getDrinkBuilderFactory()" style="text;strokeColor=none;fillColor=none;align=left;verticalAlign=top;spacingLeft=4;spacingRight=4;overflow=hidden;rotatable=0;points=[[0,0.5],[1,0.5]];portConstraint=eastwest;whiteSpace=wrap;html=1;" vertex="1" parent="B12BbA1uiOzRC5EeDLYQ-114">
          <mxGeometry y="26" width="240" height="26" as="geometry" />
        </mxCell>
        <mxCell id="B12BbA1uiOzRC5EeDLYQ-115" value="" style="endArrow=block;endSize=16;endFill=0;html=1;rounded=0;entryX=0.495;entryY=1.008;entryDx=0;entryDy=0;entryPerimeter=0;exitX=0.5;exitY=0;exitDx=0;exitDy=0;" edge="1" parent="1" source="B12BbA1uiOzRC5EeDLYQ-113" target="B12BbA1uiOzRC5EeDLYQ-111">
          <mxGeometry width="160" relative="1" as="geometry">
            <mxPoint x="410" y="1190" as="sourcePoint" />
            <mxPoint x="570" y="1190" as="targetPoint" />
          </mxGeometry>
        </mxCell>
      </root>
    </mxGraphModel>
  </diagram>
</mxfile>
